<svg width="364" height="39" viewBox="0 0 364 39" fill="none" xmlns="http://www.w3.org/2000/svg">
<g clip-path="url(#clip0_33_326)">
<path d="M328.869 1H36.1072C35.0293 1 34.1555 1.89543 34.1555 3V36C34.1555 37.1046 35.0293 38 36.1072 38H328.869C329.947 38 330.82 37.1046 330.82 36V3C330.82 1.89543 329.947 1 328.869 1Z" fill="#009688" stroke="white" stroke-width="2"/>
<path d="M35.2309 0.222717C35.2309 0.222717 31.9891 1.29273 31.6453 3.64676C31.6453 3.64676 28.3543 4.33157 28.2561 7.1992C28.2561 7.1992 23.3934 9.25363 23.7864 14.2613C23.7864 14.2613 21.3795 15.8449 21.3795 19.483C21.3795 23.1638 23.7864 24.7474 23.7864 24.7474C23.3934 29.7551 28.2561 31.8095 28.2561 31.8095C28.3543 34.6771 31.6453 35.3619 31.6453 35.3619C31.9891 37.716 35.2309 39 35.2309 39V0.222717Z" fill="white"/>
<path d="M35.2309 36.8172C35.2309 36.8172 33.217 36.7316 32.4311 34.1635C32.4311 34.1635 30.0243 34.2063 29.2385 30.6539C29.2385 30.6539 25.0142 29.4555 25.1616 24.0626C25.1616 24.0626 22.7057 22.5218 22.7057 19.4829C22.7057 16.4869 25.1616 14.9461 25.1616 14.9461C25.0142 9.55322 29.2385 8.3548 29.2385 8.3548C30.0243 4.75956 32.4311 4.84516 32.4311 4.84516C33.217 2.27713 35.2309 2.19153 35.2309 2.19153V36.8172Z" fill="#009688"/>
<path d="M4.67927 12.5494C5.17046 12.7206 5.36693 13.2342 5.66164 13.705C5.90723 13.919 6.10371 14.0902 6.25106 14.347H6.20194C7.82286 16.059 9.59112 17.5999 10.7208 19.6543C10.7208 19.5687 10.3279 19.5687 9.78761 19.5687V19.6971C10.1805 19.6971 10.5899 19.7114 11.0155 19.7399C10.9173 20.2535 10.7699 20.7671 10.5244 21.2379C10.1805 21.8371 9.73847 21.9655 9.14905 22.0511C8.95257 22.5219 8.55963 22.9071 8.11756 23.2923C8.01933 23.2923 7.90471 23.3066 7.77373 23.3351C6.69313 24.662 5.46517 25.9032 4.82663 26.588C5.71076 26.6308 6.25106 26.7592 6.25106 26.7592C6.25106 26.7592 6.10371 25.7748 7.18432 25.9888C8.26492 26.16 7.62638 27.0588 7.62638 27.0588C9.44376 27.4868 12.1944 29.4984 14.7976 29.4984C17.9412 29.4984 19.071 27.016 19.071 27.016C19.071 27.016 17.9904 27.0588 18.3342 26.2884C18.7763 25.304 19.513 26.0744 19.513 26.0744C19.8568 25.1328 19.7095 23.5491 19.7095 23.5491C21.134 23.7203 22.2145 22.6931 22.2145 22.6931C21.7234 22.7787 21.2813 22.3079 22.0181 21.7515C23.0004 20.9811 23.2951 21.9655 23.2951 21.9655C25.7511 19.7399 26.979 19.4403 26.979 19.4403C26.979 19.4403 25.7511 19.1835 23.2951 16.9579C23.2951 16.9579 23.0004 17.9423 22.0181 17.1719C21.2813 16.6155 21.7234 16.1446 22.2145 16.2302C22.2145 16.2302 21.134 15.203 19.7095 15.3742C19.7095 15.3742 19.8568 13.7906 19.513 12.849C19.513 12.849 18.7763 13.6194 18.3342 12.635C17.9904 11.8218 19.071 11.9074 19.071 11.9074C19.071 11.9074 17.9412 9.42493 14.7976 9.42493C12.1944 9.42493 9.44376 11.4366 7.62638 11.8646C7.62638 11.8646 8.26492 12.7206 7.18432 12.9346C6.10371 13.1486 6.25106 12.1642 6.25106 12.1642C6.25106 12.1642 5.61253 12.2926 4.63016 12.3782V12.5494H4.67927Z" fill="#009688"/>
<path d="M9.7875 19.5684V19.6968C10.1805 19.6968 10.5898 19.7111 11.0155 19.7396C10.9173 20.2532 10.7699 20.7668 10.5243 21.2376C10.1805 21.8369 9.73842 21.9653 9.149 22.0509C9.00164 22.3505 8.80517 22.6501 8.55957 22.9069C13.8152 24.3193 13.8152 29.6694 13.8152 29.6694C16.5659 24.6617 15.5835 22.6073 15.5835 22.6073C18.9236 23.6773 20.4463 20.724 20.4463 20.724C22.9021 20.5956 23.688 19.654 23.688 19.654C22.6566 18.0704 20.4463 18.37 20.4463 18.37C18.2359 14.9888 15.4853 16.6152 15.4853 16.6152C16.3203 12.8915 13.7661 9.25354 13.7661 9.25354C13.6679 12.6775 11.3103 14.9888 11.3103 14.9888C10.5243 15.16 9.34547 15.6736 8.06839 16.2728C9.05076 17.3 10.0331 18.37 10.7208 19.654C10.7208 19.5684 10.3278 19.5684 9.7875 19.5684Z" fill="white"/>
<path d="M8.95255 22.3934C8.98529 22.4219 9.01804 22.4362 9.05078 22.4362C12.3908 23.8914 12.3908 26.117 12.3908 26.117C11.9488 26.0742 11.3103 26.3738 11.605 27.0586C11.8997 27.7006 12.7838 27.3582 12.7838 27.3582C13.7661 28.2999 13.3241 30.4399 13.3241 30.4399C14.4046 27.3582 13.1276 25.475 13.1276 25.475C13.1276 25.475 13.6679 25.3466 13.4714 24.7046C13.1767 23.9342 12.4891 24.3194 12.4891 24.3194C12.2926 23.8058 11.1137 22.907 11.1137 22.907C12.4399 22.8214 12.4399 21.8798 12.4399 21.8798C12.7346 21.8798 13.4223 21.7942 14.2573 21.4946C15.1906 21.1522 16.1238 20.4246 16.1238 20.4246C16.1238 20.4246 16.3203 20.8526 16.615 20.8526C16.9097 20.8526 17.2535 20.6814 17.2044 20.2962C17.1553 19.9538 16.7624 19.3973 15.6818 20.0394C13.9626 21.1094 11.8505 21.3234 11.8505 21.3234C11.8505 21.3234 11.1137 22.5646 10.1314 21.7086C9.88578 21.9226 9.54196 22.0082 9.14902 22.051C9.08353 22.1651 9.01804 22.2792 8.95255 22.3934Z" fill="black"/>
<path d="M8.31403 23.1638C8.41227 23.1924 8.5105 23.2209 8.60874 23.2494C12.047 24.2766 12.3908 26.1171 12.3908 26.1171C12.3908 26.1171 12.5382 23.8486 8.80521 22.6074C8.64148 22.7786 8.47776 22.9641 8.31403 23.1638Z" fill="black"/>
<path d="M8.31399 16.5297C12.5382 15.3313 12.3908 12.8489 12.3908 12.8489C12.3908 12.8489 12.047 14.6893 8.6087 15.7165C8.31399 15.8021 8.05203 15.8877 7.82281 15.9733C7.98654 16.1445 8.15027 16.33 8.31399 16.5297Z" fill="black"/>
<path d="M9.44371 17.7709C9.67294 17.6568 9.90217 17.4998 10.1314 17.3001C11.1137 16.3585 11.8505 17.6425 11.8505 17.6425C11.8505 17.6425 13.9626 17.8565 15.6818 18.9265C16.7623 19.5685 17.1553 19.0121 17.2044 18.6697C17.2535 18.2845 16.9097 18.1133 16.615 18.1133C16.3203 18.1133 16.1238 18.5413 16.1238 18.5413C16.1238 18.5413 15.1906 17.8137 14.2573 17.4713C13.4223 17.1717 12.7346 17.0861 12.4399 17.0861C12.4399 17.0861 12.4399 16.1445 11.1137 16.0589C11.1137 16.0589 12.2926 15.1601 12.4891 14.6465C12.4891 14.6465 13.1767 15.0317 13.4714 14.2613C13.6679 13.6193 13.1276 13.4909 13.1276 13.4909C13.1276 13.4909 14.4046 11.6076 13.3241 8.526C13.3241 8.526 13.7661 10.666 12.7837 11.6076C12.7837 11.6076 11.8997 11.2652 11.605 11.9072C11.3103 12.5921 11.9488 12.8917 12.3908 12.8489C12.3908 12.8489 12.3908 15.1173 9.05077 16.5297C8.8543 16.6153 8.67419 16.6866 8.51047 16.7437C8.83792 17.0861 9.149 17.4285 9.44371 17.7709Z" fill="black"/>
<path d="M11.1629 19.0549C16.6642 17.0433 15.78 14.0473 15.8291 12.9345C15.8783 11.8216 17.2536 11.6932 17.2536 11.6932C17.2536 11.6932 16.3695 12.0356 16.6151 13.2769C16.9589 14.9033 15.8783 16.1873 15.8783 16.1873C15.8783 16.1873 17.3518 15.1601 19.7587 17.0005C19.7587 17.0005 17.2044 15.6309 15.8291 16.7865C15.1906 17.3429 13.8644 19.1833 11.4576 19.4829C13.8644 19.7825 15.1906 21.623 15.8291 22.1794C17.2044 23.335 19.7587 21.9654 19.7587 21.9654C17.3518 23.8058 15.8783 22.7786 15.8783 22.7786C15.8783 22.7786 16.9589 24.0626 16.6151 25.689C16.3695 26.9302 17.2536 27.3154 17.2536 27.3154C17.2536 27.3154 15.8783 27.1442 15.8291 26.0314C15.78 24.9186 16.6642 21.9226 11.1629 19.9109V19.0549Z" fill="black"/>
<path d="M23.0987 19.483C22.1655 18.4557 20.1515 18.6697 20.1515 18.6697C20.1025 17.1717 18.3342 17.1289 18.3342 17.1289C18.3342 17.1289 18.3342 17.5569 17.7938 17.6425C17.2536 17.7281 17.1062 17.5141 16.9589 17.2145C16.8606 17.0005 17.008 16.3585 17.6465 16.3585C18.2851 16.3585 20.1516 16.7009 20.7901 18.1133C20.7901 18.1133 23.0004 17.8993 24.1793 19.483C23.0004 21.0666 20.7901 20.8526 20.7901 20.8526C20.1516 22.3078 18.2851 22.6074 17.6465 22.6074C17.008 22.6074 16.8606 21.9654 16.9589 21.7086C17.1062 21.4946 17.2536 21.2378 17.7938 21.3234C18.3342 21.409 18.3342 21.837 18.3342 21.837C18.3342 21.837 20.1025 21.7942 20.1515 20.2962C20.1515 20.2962 22.1655 20.5102 23.0987 19.483Z" fill="black"/>
<path d="M10.3278 18.9693C10.9664 18.5841 11.0155 17.8137 11.0155 17.8137C11.0155 17.8137 10.4261 17.9849 9.83667 18.3273C10.0004 18.5271 10.1641 18.7411 10.3278 18.9693Z" fill="#009688"/>
<path d="M11.0155 19.7398C10.9828 19.8254 10.9664 19.8967 10.9664 19.9538C11.3593 19.9538 11.8505 19.8254 12.3418 19.483C11.605 18.8838 10.7699 18.9266 10.3769 19.0122C10.508 19.2119 10.6226 19.4259 10.7208 19.6542C10.7208 19.5686 10.3278 19.5686 9.78751 19.5686V19.697C10.1805 19.697 10.5898 19.7113 11.0155 19.7398Z" fill="#009688"/>
<path d="M35.2309 25.5605C35.1817 26.2453 33.9047 29.1986 31.4487 29.1986C28.9438 29.1986 28.1087 27.1869 28.1087 27.1869C28.1087 27.1869 28.9438 28.2997 30.4664 28.2997C31.2523 28.2997 31.2523 27.6577 31.8908 27.6577C32.5294 27.6577 32.6276 28.2997 32.2347 28.5993C32.2347 28.5993 34.1503 28.1713 35.0344 25.5605H35.2309Z" fill="black"/>
<path d="M35.2309 29.0703C35.2309 29.0703 32.775 27.9147 32.9224 26.117C32.9224 26.117 30.1717 26.2026 30.1717 24.9614C30.1717 23.6774 32.9715 23.5918 32.4311 22.7786C31.94 22.051 31.1541 22.9926 29.877 23.0782C28.3052 23.1638 27.1264 22.3078 27.2246 21.1094C27.2246 21.1094 25.5546 20.8954 25.2598 20.339C24.867 19.697 24.2283 19.483 24.2283 19.483C24.2283 19.483 24.867 19.2262 25.2598 18.6269C25.5546 18.0705 27.2246 17.8565 27.2246 17.8565C27.1264 16.6581 28.3052 15.8021 29.877 15.8877C31.1541 15.9733 31.94 16.9149 32.4311 16.1873C32.9715 15.3741 30.1717 15.2885 30.1717 14.0473C30.1717 12.7633 32.9224 12.8489 32.9224 12.8489C32.775 11.0513 35.2309 9.89564 35.2309 9.89564L34.9853 9.68164C34.9853 9.68164 32.6768 10.4948 32.382 12.3353C32.382 12.3353 28.649 12.1641 29.3858 15.4597C29.3858 15.4597 26.8317 15.2457 26.7334 17.5141C26.7334 17.5141 25.1617 17.7281 24.7196 18.5841C24.2283 19.4402 23.3442 19.483 23.3442 19.483C23.3442 19.483 24.2283 19.5258 24.7196 20.3818C25.1617 21.2378 26.7334 21.4518 26.7334 21.4518C26.8317 23.7202 29.3858 23.5062 29.3858 23.5062C28.649 26.8019 32.382 26.6306 32.382 26.6306C32.6768 28.4711 34.9853 29.2843 34.9853 29.2843L35.2309 29.0703Z" fill="black"/>
<path d="M35.2309 13.4053C35.1817 12.7204 33.9047 9.76721 31.4487 9.76721C28.9438 9.76721 28.1087 11.8216 28.1087 11.8216C28.1087 11.8216 28.9438 10.7088 30.4664 10.7088C31.2523 10.7088 31.2523 11.308 31.8908 11.308C32.5294 11.308 32.6276 10.7088 32.2347 10.3664C32.2347 10.3664 34.1503 10.7944 35.0344 13.4053H35.2309Z" fill="black"/>
<path d="M29.9753 19.4402C29.877 20.767 27.7157 20.981 27.7157 20.981C27.7157 20.2106 28.6981 19.9538 28.6981 19.9538C27.421 20.2534 26.6843 19.3546 26.6843 19.3546C26.6843 19.3546 27.421 18.7126 28.6981 19.055C28.6981 19.055 27.7157 18.7982 27.7157 18.0278C27.7157 18.0278 29.877 18.0706 29.9753 19.4402Z" fill="#009688"/>
<path d="M3.99156 10.6661C3.99156 10.6661 3.64773 12.3781 4.43362 13.1913C4.43362 13.1913 5.1704 12.8917 5.41599 13.4481C5.66158 13.9617 5.12127 14.2185 4.77745 14.1757C4.77745 14.1757 4.77745 16.0161 7.52809 17.1718C8.31397 17.5142 8.75604 17.6854 8.60869 18.1134C8.46133 18.5842 7.47896 18.5414 6.64395 17.8138C5.80893 17.0434 5.21951 18.0706 5.21951 18.0706C5.21951 18.0706 3.50037 18.2846 2.12506 19.1406C1.24093 19.6542 0.897094 19.1834 0.847975 18.9266C0.798857 18.627 1.09357 18.4558 1.33916 18.4558C1.58476 18.4558 1.7321 18.841 1.7321 18.841C1.7321 18.841 2.518 18.2418 3.25477 17.9422C3.94244 17.6854 4.48274 17.6426 4.72833 17.6426C4.72833 17.6426 4.72833 16.8722 5.80894 16.7866C5.80894 16.7866 4.82657 16.0589 4.67921 15.6737C4.67921 15.6737 4.13891 15.9733 3.89332 15.3313C3.74596 14.8177 4.13891 14.6893 4.13891 14.6893C4.13891 14.6893 3.15654 13.1913 3.99156 10.6661Z" fill="black"/>
<path d="M9.73845 19.5686C10.0331 19.5258 10.4261 19.4402 10.6226 18.627C10.8682 17.771 10.0822 17.1718 7.87195 16.5297C5.02308 15.6737 4.77749 14.1757 4.77749 14.1757C4.77749 14.1757 4.67925 16.2729 8.26489 17.2146C9.78761 17.6426 9.88578 17.985 9.88578 18.4986C9.88578 19.055 9.05079 19.4402 7.87195 19.269V19.911C9.05079 19.7398 9.88578 20.125 9.88578 20.6814C9.88578 21.195 9.78761 21.5374 8.26489 21.9654C4.67925 22.907 4.77749 25.0043 4.77749 25.0043C4.77749 25.0043 5.02308 23.5062 7.87195 22.6502C10.0822 22.0082 10.8682 21.409 10.6226 20.553C10.4261 19.7398 10.0331 19.6542 9.73845 19.5686Z" fill="black"/>
<path d="M3.99156 28.5139C3.99156 28.5139 3.64773 26.8018 4.43362 25.9886C4.43362 25.9886 5.1704 26.2882 5.41599 25.7746C5.66158 25.2182 5.12127 24.9614 4.77745 25.0042C4.77745 25.0042 4.77745 23.1638 7.52809 22.0082C8.31397 21.6658 8.75604 21.4946 8.60869 21.0666C8.46133 20.5958 7.47896 20.6386 6.64395 21.3662C5.80893 22.1366 5.21951 21.1094 5.21951 21.1094C5.21951 21.1094 3.50037 20.8954 2.12506 20.0822C1.24093 19.5258 0.897094 19.9966 0.847975 20.2534C0.798857 20.553 1.09357 20.7242 1.33916 20.7242C1.58476 20.7242 1.7321 20.339 1.7321 20.339C1.7321 20.339 2.518 20.9382 3.25477 21.2378C3.94244 21.4946 4.48274 21.5374 4.72833 21.5374C4.72833 21.5374 4.72833 22.3078 5.80894 22.3934C5.80894 22.3934 4.82657 23.121 4.67921 23.5062C4.67921 23.5062 4.13891 23.2066 3.89332 23.8486C3.74596 24.3622 4.13891 24.4906 4.13891 24.4906C4.13891 24.4906 3.15654 25.9886 3.99156 28.5139Z" fill="black"/>
<path d="M14.0117 19.5685C12.6364 20.8954 10.4752 21.3662 10.4752 21.3662C10.6716 21.1522 10.6716 20.6386 10.6716 20.6386C10.6716 20.6386 11.8996 20.5102 13.1276 19.5685C11.8996 18.6697 10.6716 18.5413 10.6716 18.5413C10.6716 18.5413 10.6716 18.0277 10.4752 17.8137C10.4752 17.8137 12.6364 18.2845 14.0117 19.5685Z" fill="black"/>
<path d="M7.62632 19.5686C7.62632 20.5102 5.90718 20.9382 5.90718 20.9382C5.90718 20.9382 5.9563 20.1678 6.64395 19.911C6.64395 19.911 5.66158 20.2534 4.82657 19.5686C5.7107 18.9694 6.64395 19.269 6.64395 19.269C5.9563 19.0122 5.90718 18.2418 5.90718 18.2418C5.90718 18.2418 7.62632 18.627 7.62632 19.5686Z" fill="#009688"/>
<path d="M7.1843 19.1406C7.1843 18.627 7.82284 18.627 7.82284 19.1406V20.2534C7.82284 20.767 7.1843 20.767 7.1843 20.2534V19.1406Z" fill="black"/>
<path d="M30.3682 19.3546C34.396 20.4246 35.2309 23.335 35.2309 23.335L34.8871 23.3778C34.8871 23.3778 33.8065 20.7242 30.3191 19.697L30.3682 19.3546Z" fill="black"/>
<path d="M32.8732 20.981L32.382 20.6814C32.1364 22.6502 29.1402 23.0782 29.1402 23.0782C29.1402 23.0782 32.333 23.2494 32.8732 20.981Z" fill="black"/>
<path d="M30.3682 19.6114C34.396 18.5414 35.2309 15.6309 35.2309 15.6309L34.8871 15.5881C34.8871 15.5881 33.8065 18.2418 30.3191 19.269L30.3682 19.6114Z" fill="black"/>
<path d="M32.8732 17.9849L32.382 18.2845C32.1364 16.3157 29.1402 15.8877 29.1402 15.8877C29.1402 15.8877 32.333 15.7165 32.8732 17.9849Z" fill="black"/>
<path d="M34.7396 19.3974C34.1994 18.3274 33.5117 18.0278 33.5117 18.0278L33.1679 18.2846C33.1679 18.2846 33.8556 18.627 34.1994 19.3974C33.8556 20.1678 33.0696 20.6386 33.0696 20.6386L33.4626 20.9382C33.4626 20.9382 34.1994 20.4674 34.7396 19.3974Z" fill="black"/>
<path d="M35.2309 29.3271C33.5117 30.1831 33.0696 31.9807 33.0696 31.9807C34.003 32.0663 34.3959 31.1675 34.3959 31.1675C34.1503 32.1947 35.2309 33.3503 35.2309 33.3503V29.3271Z" fill="#009688"/>
<path d="M35.2309 23.335C33.61 23.4206 33.3643 25.261 33.3643 25.261C34.2485 25.261 34.5432 24.4478 34.5432 24.4478C34.1994 25.475 35.2309 26.1599 35.2309 26.1599V23.335Z" fill="#009688"/>
<path d="M35.2309 9.63885C33.5117 8.74004 33.0696 6.98522 33.0696 6.98522C34.003 6.89961 34.3959 7.79843 34.3959 7.79843C34.1503 6.77121 35.2309 5.6156 35.2309 5.6156V9.63885Z" fill="#009688"/>
<path d="M35.2309 15.631C33.61 15.5454 33.3643 13.705 33.3643 13.705C34.2485 13.705 34.5432 14.5182 34.5432 14.5182C34.1994 13.491 35.2309 12.8062 35.2309 12.8062V15.631Z" fill="#009688"/>
<path d="M30.4173 20.125C30.4173 20.767 29.6315 20.8098 29.6315 20.125V18.7982C29.6315 18.1561 30.4173 18.1561 30.4173 18.7982V20.125Z" fill="black"/>
<path d="M35.2309 29.8835H34.1503C33.2662 29.8835 33.3153 29.0703 34.1503 29.0703H35.2309V29.8835Z" fill="black"/>
<path d="M35.2309 15.9733H34.3468C33.5609 15.9733 33.5609 15.2885 34.3468 15.2885H35.2309V15.9733Z" fill="black"/>
<path d="M35.2309 23.5918H34.3468C33.5609 23.5918 33.5609 22.907 34.3468 22.907H35.2309V23.5918Z" fill="black"/>
<path d="M35.2309 9.03955H34.1503C33.2662 9.03955 33.3153 9.80996 34.1503 9.80996H35.2309V9.03955Z" fill="black"/>
<path d="M329.598 0.222717C329.598 0.222717 332.839 1.29273 333.183 3.64676C333.183 3.64676 336.425 4.33157 336.523 7.1992C336.523 7.1992 341.386 9.25363 341.043 14.2613C341.043 14.2613 343.449 15.8449 343.449 19.483C343.449 23.1638 341.043 24.7474 341.043 24.7474C341.386 29.7551 336.523 31.8095 336.523 31.8095C336.425 34.6771 333.183 35.3619 333.183 35.3619C332.839 37.716 329.598 39 329.598 39V0.222717Z" fill="white"/>
<path d="M329.598 36.8172C329.598 36.8172 331.562 36.7316 332.349 34.1635C332.349 34.1635 334.755 34.2063 335.541 30.6539C335.541 30.6539 339.814 29.4555 339.618 24.0626C339.618 24.0626 342.123 22.5218 342.123 19.4829C342.123 16.4869 339.618 14.9461 339.618 14.9461C339.814 9.55322 335.541 8.3548 335.541 8.3548C334.755 4.75956 332.349 4.84516 332.349 4.84516C331.562 2.27713 329.598 2.19153 329.598 2.19153V36.8172Z" fill="#009688"/>
<path d="M341.337 22.3078C341.337 22.3078 341.632 21.3234 342.614 22.0938C343.351 22.6502 342.908 23.121 342.418 23.0354C342.418 23.0354 343.498 24.1054 344.923 23.8914C344.923 23.8914 344.775 25.5178 345.119 26.4166C345.119 26.4166 345.856 25.6462 346.298 26.6306C346.641 27.4438 345.561 27.3582 345.561 27.3582C345.561 27.3582 346.691 29.8407 349.834 29.8407C352.438 29.8407 355.188 27.829 357.006 27.401C357.006 27.401 356.367 26.545 357.448 26.331C358.528 26.1598 358.381 27.1014 358.381 27.1014C358.381 27.1014 359.118 26.973 360.297 26.8874C360.263 26.8304 360.231 26.7733 360.198 26.7162C359.756 26.0314 359.167 25.3894 358.528 24.7902C356.907 23.1638 355.238 21.5802 353.714 19.9109C353.42 19.9109 353.272 19.9109 353.272 19.9109C353.272 19.8824 353.272 19.8681 353.272 19.8681C353.862 18.3273 355.335 17.1717 356.661 16.1445C356.924 15.9448 357.219 15.745 357.546 15.5453H357.055C357.546 14.9889 358.086 14.3469 358.724 13.8761C358.954 13.5907 359.183 13.3197 359.412 13.0629C359.543 12.9487 359.691 12.8203 359.855 12.6776C358.922 12.6348 358.381 12.5064 358.381 12.5064C358.381 12.5064 358.528 13.4909 357.448 13.2769C356.367 13.1057 357.006 12.2068 357.006 12.2068C355.188 11.7788 352.438 9.76721 349.834 9.76721C346.691 9.76721 345.561 12.2496 345.561 12.2496C345.561 12.2496 346.641 12.2068 346.298 12.9773C345.856 13.9617 345.119 13.1913 345.119 13.1913C344.775 14.1329 344.923 15.7165 344.923 15.7165C343.498 15.5453 342.418 16.5725 342.418 16.5725C342.908 16.4869 343.351 16.9577 342.614 17.5141C341.632 18.2845 341.337 17.3001 341.337 17.3001C338.881 19.5257 337.653 19.8253 337.653 19.8253C337.653 19.8253 338.881 20.1249 341.337 22.3078Z" fill="#009688"/>
<path d="M344.186 20.8954C346.396 24.2767 349.146 22.6503 349.146 22.6503C348.312 26.3739 350.866 30.012 350.866 30.012C350.964 26.5879 353.322 24.2767 353.322 24.2767C354.108 24.1055 355.385 23.5919 356.711 22.9499C355.68 21.9655 354.648 20.9382 353.714 19.911C353.42 19.911 353.272 19.911 353.272 19.911C353.272 19.8825 353.272 19.8682 353.272 19.8682C353.813 18.4986 355.09 17.3858 356.318 16.4442C350.817 15.1174 350.817 9.59607 350.817 9.59607C348.066 14.6038 349.049 16.6582 349.049 16.6582C345.708 15.5882 344.186 18.5414 344.186 18.5414C341.73 18.6698 340.944 19.6114 340.944 19.6114C341.976 21.195 344.186 20.8954 344.186 20.8954Z" fill="white"/>
<path d="M347.428 18.9692C347.477 19.3116 347.87 19.8681 348.95 19.226C350.67 18.156 352.781 17.942 352.781 17.942C352.781 17.942 353.518 16.658 354.501 17.5996C354.598 17.6567 354.68 17.7138 354.746 17.7708C355.074 17.457 355.401 17.1574 355.728 16.872C355.695 16.872 355.647 16.8578 355.581 16.8292C352.241 15.4168 352.241 13.1484 352.241 13.1484C352.683 13.1912 353.322 12.8916 353.027 12.2068C352.733 11.5648 351.848 11.9072 351.848 11.9072C350.866 10.9655 351.308 8.82556 351.308 8.82556C350.228 11.9072 351.504 13.7904 351.504 13.7904C351.504 13.7904 350.964 13.9188 351.16 14.5608C351.455 15.3312 352.143 14.946 352.143 14.946C352.339 15.4596 353.518 16.3584 353.518 16.3584C352.192 16.444 352.192 17.3856 352.192 17.3856C351.897 17.3856 351.209 17.4712 350.375 17.7708C349.441 18.156 348.508 18.8408 348.508 18.8408C348.508 18.8408 348.312 18.4128 348.017 18.4128C347.722 18.4128 347.378 18.584 347.428 18.9692Z" fill="black"/>
<path d="M356.416 22.693C352.093 23.8914 352.241 26.4166 352.241 26.4166C352.241 26.4166 352.585 24.5762 356.023 23.549C356.383 23.4349 356.711 23.335 357.006 23.2494C356.809 23.0782 356.613 22.8927 356.416 22.693Z" fill="black"/>
<path d="M355.925 16.701C356.154 16.5298 356.383 16.3586 356.613 16.1874C356.416 16.1304 356.219 16.0733 356.023 16.0162C352.585 14.989 352.241 13.1486 352.241 13.1486C352.241 13.1486 352.093 15.5026 355.925 16.701Z" fill="black"/>
<path d="M348.017 21.1522C348.312 21.1522 348.508 20.7242 348.508 20.7242C348.508 20.7242 349.441 21.4518 350.375 21.7942C351.209 22.0938 351.897 22.1794 352.192 22.1794C352.192 22.1794 352.192 23.121 353.518 23.2066C353.518 23.2066 352.339 24.1054 352.143 24.619C352.143 24.619 351.455 24.2338 351.16 25.0042C350.964 25.6463 351.504 25.7747 351.504 25.7747C351.504 25.7747 350.228 27.6579 351.308 30.7395C351.308 30.7395 350.866 28.5995 351.848 27.6579C351.848 27.6579 352.733 28.0003 353.027 27.3583C353.322 26.6735 352.683 26.3739 352.241 26.4167C352.241 26.4167 352.241 24.191 355.581 22.7358C355.81 22.6502 356.023 22.5646 356.219 22.479C355.892 22.1651 355.565 21.837 355.238 21.4946C355.008 21.6087 354.762 21.7657 354.501 21.9654C353.518 22.907 352.781 21.623 352.781 21.623C352.781 21.623 350.67 21.409 348.95 20.3818C347.87 19.697 347.477 20.2534 347.428 20.5958C347.378 20.981 347.722 21.1522 348.017 21.1522Z" fill="black"/>
<path d="M344.874 17.3001C344.874 17.3001 347.428 15.9305 348.803 17.0861C349.441 17.6425 350.767 19.483 353.175 19.7826C350.767 20.0822 349.441 21.9226 348.803 22.479C347.428 23.6346 344.874 22.265 344.874 22.265C347.28 24.1054 348.754 23.0782 348.754 23.0782C348.754 23.0782 347.673 24.3622 348.017 25.9886C348.262 27.2299 347.379 27.6151 347.379 27.6151C347.379 27.6151 348.754 27.4439 348.803 26.331C348.852 25.2182 347.967 22.2222 353.469 20.2106V19.911C353.339 19.911 353.272 19.911 353.272 19.911C353.272 19.911 353.272 19.8967 353.272 19.8682C353.339 19.7255 353.404 19.5971 353.469 19.483V19.3546C347.967 17.3429 348.852 14.3469 348.803 13.2341C348.754 12.1213 347.379 11.9501 347.379 11.9501C347.379 11.9501 348.262 12.3353 348.017 13.5765C347.673 15.2029 348.754 16.4869 348.754 16.4869C348.754 16.4869 347.28 15.4597 344.874 17.3001Z" fill="black"/>
<path d="M341.534 19.7826C342.466 20.8098 344.481 20.5958 344.481 20.5958C344.529 22.0938 346.298 22.1366 346.298 22.1366C346.298 22.1366 346.298 21.7086 346.838 21.623C347.379 21.5374 347.526 21.7942 347.674 22.051C347.771 22.265 347.624 22.907 346.986 22.907C346.348 22.907 344.481 22.6074 343.842 21.1522C343.842 21.1522 341.632 21.3662 340.453 19.7826C341.632 18.199 343.842 18.413 343.842 18.413C344.481 17.0005 346.348 16.6581 346.986 16.6581C347.624 16.6581 347.771 17.3001 347.674 17.557C347.526 17.771 347.379 18.0278 346.838 17.9422C346.298 17.8566 346.298 17.4286 346.298 17.4286C346.298 17.4286 344.529 17.4714 344.481 18.9694C344.481 18.9694 342.466 18.7554 341.534 19.7826Z" fill="black"/>
<path d="M354.747 20.981C354.55 20.8098 354.353 20.6243 354.157 20.4246C353.666 20.8098 353.617 21.4518 353.617 21.4518C353.617 21.4518 354.206 21.2806 354.747 20.981Z" fill="#009688"/>
<path d="M353.273 19.911C353.273 19.8824 353.273 19.8682 353.273 19.8682C353.371 19.6684 353.453 19.483 353.518 19.3118C353.175 19.3546 352.733 19.483 352.291 19.7826C352.88 20.2962 353.567 20.339 354.059 20.2962C353.928 20.1535 353.813 20.0251 353.714 19.911C353.42 19.911 353.273 19.911 353.273 19.911Z" fill="#009688"/>
<path d="M329.598 29.4555C329.598 29.4555 332.054 28.2571 331.907 26.4594C331.907 26.4594 334.608 26.545 334.608 25.3038C334.608 24.0198 331.808 23.9342 332.349 23.121C332.84 22.3934 333.675 23.335 334.902 23.4206C336.523 23.5062 337.702 22.6502 337.555 21.4518C337.555 21.4518 339.225 21.2378 339.569 20.6814C339.961 20.0822 340.551 19.8254 340.551 19.8254C340.551 19.8254 339.961 19.6114 339.569 18.9694C339.225 18.4129 337.555 18.2417 337.555 18.2417C337.702 17.0005 336.523 16.1445 334.902 16.2729C333.675 16.3157 332.84 17.2573 332.349 16.5725C331.808 15.7165 334.608 15.6309 334.608 14.3897C334.608 13.1057 331.907 13.2341 331.907 13.2341C332.054 11.3937 329.598 10.2381 329.598 10.2381L329.794 10.024C329.794 10.024 332.103 10.8373 332.446 12.7205C332.446 12.7205 336.13 12.5065 335.443 15.8021C335.443 15.8021 337.997 15.5881 338.096 17.8565C338.096 17.8565 339.618 18.0705 340.109 18.9266C340.551 19.7826 341.485 19.8254 341.485 19.8254C341.485 19.8254 340.551 19.8682 340.109 20.7242C339.618 21.5802 338.096 21.7942 338.096 21.7942C337.997 24.0626 335.443 23.8914 335.443 23.8914C336.13 27.1443 332.446 26.9731 332.446 26.9731C332.103 28.8135 329.794 29.6695 329.794 29.6695L329.598 29.4555Z" fill="black"/>
<path d="M360.345 28.6423C360.345 28.6423 360.69 26.8875 359.903 26.1171C359.903 26.1171 359.216 26.3739 358.97 25.8602C358.724 25.3038 359.265 25.0898 359.56 25.1326C359.56 25.1326 359.609 23.2494 356.859 22.0938C356.072 21.7942 355.63 21.623 355.777 21.1522C355.925 20.6814 356.907 20.7242 357.743 21.4946C358.577 22.2222 359.167 21.195 359.167 21.195C359.167 21.195 360.886 21.0238 362.261 20.1678C363.145 19.6114 363.49 20.0822 363.538 20.3818C363.587 20.6386 363.293 20.8098 363.048 20.8098C362.802 20.8098 362.654 20.4674 362.654 20.4674C362.654 20.4674 361.869 21.0238 361.132 21.3234C360.444 21.5802 359.855 21.623 359.609 21.6658C359.609 21.6658 359.609 22.4362 358.577 22.479C358.577 22.479 359.511 23.2066 359.658 23.6346C359.658 23.6346 360.248 23.335 360.444 23.977C360.64 24.4906 360.198 24.5762 360.198 24.5762C360.198 24.5762 361.23 26.1171 360.345 28.6423Z" fill="black"/>
<path d="M354.648 19.6971C354.353 19.7827 353.96 19.8683 353.714 20.6387C353.518 21.5375 354.255 22.0939 356.514 22.7787C359.314 23.5919 359.56 25.1327 359.56 25.1327C359.56 25.1327 359.707 22.9927 356.122 22.0511C354.55 21.6659 354.451 21.3235 354.451 20.7671C354.451 20.2535 355.286 19.8255 356.514 19.9967V19.3975C355.286 19.5687 354.451 19.1407 354.451 18.627C354.451 18.0706 354.55 17.7282 356.122 17.343C359.707 16.3586 359.56 14.2614 359.56 14.2614C359.56 14.2614 359.314 15.8022 356.514 16.6154C354.255 17.3002 353.518 17.8566 353.714 18.7126C353.96 19.5259 354.353 19.6115 354.648 19.6971Z" fill="black"/>
<path d="M360.345 10.7516C360.345 10.7516 360.69 12.5065 359.903 13.2769C359.903 13.2769 359.216 12.9773 358.97 13.5337C358.724 14.0473 359.265 14.3041 359.56 14.2613C359.56 14.2613 359.609 16.1017 356.859 17.3001C356.072 17.5997 355.63 17.7709 355.777 18.2417C355.925 18.6697 356.907 18.6269 357.743 17.8993C358.577 17.1717 359.167 18.1989 359.167 18.1989C359.167 18.1989 360.886 18.3701 362.261 19.2262C363.145 19.7826 363.49 19.3118 363.538 19.0121C363.587 18.7125 363.293 18.5841 363.048 18.5841C362.802 18.5841 362.654 18.9265 362.654 18.9265C362.654 18.9265 361.869 18.3273 361.132 18.0705C360.444 17.8137 359.855 17.7281 359.609 17.7281C359.609 17.7281 359.609 16.9577 358.577 16.9149C358.577 16.9149 359.511 16.1873 359.658 15.7593C359.658 15.7593 360.248 16.0589 360.444 15.4169C360.64 14.9033 360.198 14.8177 360.198 14.8177C360.198 14.8177 361.23 13.2769 360.345 10.7516Z" fill="black"/>
<path d="M350.375 19.697C351.75 18.3701 353.862 17.9421 353.862 17.9421C353.666 18.1561 353.666 18.6269 353.666 18.6269C353.666 18.6269 352.487 18.7981 351.259 19.697C352.487 20.5958 353.666 20.767 353.666 20.767C353.666 20.767 353.666 21.2378 353.862 21.4518C353.862 21.4518 351.75 21.0238 350.375 19.697Z" fill="black"/>
<path d="M356.76 19.6969C356.76 18.7981 358.479 18.3273 358.479 18.3273C358.479 18.3273 358.381 19.0977 357.743 19.3545C357.743 19.3545 358.724 19.0121 359.56 19.6969C358.676 20.2962 357.743 20.0394 357.743 20.0394C358.381 20.2962 358.479 21.0238 358.479 21.0238C358.479 21.0238 356.76 20.6386 356.76 19.6969Z" fill="#009688"/>
<path d="M357.202 20.125C357.202 20.6386 356.514 20.6386 356.514 20.125V19.055C356.514 18.4986 357.202 18.5414 357.202 19.055V20.125Z" fill="black"/>
<path d="M329.598 25.903C329.646 26.6306 330.875 29.5411 333.38 29.5411C335.835 29.5411 336.671 27.5294 336.671 27.5294C336.671 27.5294 335.835 28.6422 334.313 28.6422C333.576 28.6422 333.576 28.043 332.888 28.043C332.25 28.043 332.201 28.6422 332.545 28.9419C332.545 28.9419 330.678 28.5138 329.794 25.903H329.598Z" fill="black"/>
<path d="M334.46 19.7397C330.433 20.8098 329.598 23.6774 329.598 23.6774L329.941 23.7202C329.941 23.7202 331.022 21.1094 334.509 20.0394L334.46 19.7397Z" fill="black"/>
<path d="M331.955 21.3662L332.397 21.0238C332.643 22.9926 335.688 23.4206 335.688 23.4206C335.688 23.4206 332.496 23.5918 331.955 21.3662Z" fill="black"/>
<path d="M329.598 13.7905C329.646 13.0629 330.875 10.1096 333.38 10.1096C335.835 10.1096 336.671 12.164 336.671 12.164C336.671 12.164 335.835 11.0512 334.313 11.0512C333.576 11.0512 333.576 11.6504 332.888 11.6504C332.25 11.6504 332.201 11.0512 332.545 10.7516C332.545 10.7516 330.678 11.1368 329.794 13.7905H329.598Z" fill="black"/>
<path d="M334.46 19.9538C330.433 18.8838 329.598 15.9733 329.598 15.9733L329.941 15.9305C329.941 15.9305 331.022 18.5842 334.509 19.6542L334.46 19.9538Z" fill="black"/>
<path d="M331.955 18.3272L332.397 18.6696C332.643 16.658 335.688 16.2728 335.688 16.2728C335.688 16.2728 332.496 16.0588 331.955 18.3272Z" fill="black"/>
<path d="M330.04 19.7398C330.629 18.6698 331.267 18.3702 331.267 18.3702L331.612 18.627C331.612 18.627 330.924 18.9694 330.58 19.7398C330.924 20.5102 331.759 20.981 331.759 20.981L331.366 21.2806C331.366 21.2806 330.629 20.8098 330.04 19.7398Z" fill="black"/>
<path d="M329.598 29.7123C331.267 30.5683 331.759 32.3659 331.759 32.3659C330.825 32.4515 330.383 31.5099 330.383 31.5099C330.678 32.5371 329.598 33.6927 329.598 33.6927V29.7123Z" fill="#009688"/>
<path d="M329.598 23.6774C331.17 23.763 331.415 25.6035 331.415 25.6035C330.531 25.6035 330.236 24.7902 330.236 24.7902C330.629 25.8603 329.598 26.5023 329.598 26.5023V23.6774Z" fill="#009688"/>
<path d="M334.804 19.7826C334.951 21.1522 337.064 21.3234 337.064 21.3234C337.064 20.553 336.13 20.2962 336.13 20.2962C337.359 20.5958 338.144 19.7398 338.144 19.7398C338.144 19.7398 337.359 19.0978 336.13 19.3974C336.13 19.3974 337.064 19.1406 337.064 18.3702C337.064 18.3702 334.951 18.413 334.804 19.7826Z" fill="#009688"/>
<path d="M329.598 9.98118C331.267 9.12517 331.759 7.32755 331.759 7.32755C330.825 7.24195 330.383 8.18356 330.383 8.18356C330.678 7.11355 329.598 6.00073 329.598 6.00073V9.98118Z" fill="#009688"/>
<path d="M329.598 16.0162C331.17 15.8878 331.415 14.0902 331.415 14.0902C330.531 14.0902 330.236 14.9034 330.236 14.9034C330.629 13.8334 329.598 13.1486 329.598 13.1486V16.0162Z" fill="#009688"/>
<path d="M334.412 20.5102C334.412 21.1522 335.197 21.1522 335.197 20.5102V19.1833C335.197 18.5413 334.412 18.5413 334.412 19.1833V20.5102Z" fill="black"/>
<path d="M329.598 30.2686H330.629C331.562 30.2686 331.513 29.4554 330.629 29.4554H329.598V30.2686Z" fill="black"/>
<path d="M329.598 16.3585H330.482C331.219 16.3585 331.267 15.6737 330.482 15.6737H329.598V16.3585Z" fill="black"/>
<path d="M329.598 23.977H330.482C331.219 23.977 331.267 23.2922 330.482 23.2922H329.598V23.977Z" fill="black"/>
<path d="M329.598 9.42493H330.629C331.562 9.42493 331.513 10.1954 330.629 10.1954H329.598V9.42493Z" fill="black"/>
<path d="M90.756 19.0658L105.882 3H262.021L275.196 19.0658L261.046 36H106.37L90.756 19.0658Z" fill="white"/>
<path d="M80.6163 37.9608C82.925 37.8352 92.4539 34.7772 92.4539 28.787C92.4539 22.7967 85.872 20.8279 85.872 20.8279C85.872 20.8279 89.5068 22.7967 89.5068 26.5249C89.5068 28.3681 87.5421 28.3681 87.5421 29.918C87.5421 31.5098 89.5068 31.6355 90.4891 30.7977C90.4891 30.7977 89.1629 35.3218 80.6163 37.5V37.9608Z" fill="white"/>
<path d="M60.504 25.8474C63.8902 36.6774 72.9996 38.9747 72.9996 38.9747L73.1904 38.037C73.1904 38.037 64.8441 35.0834 61.5056 25.7067L60.504 25.8474Z" fill="white"/>
<path d="M65.8317 32.2218L64.7511 31.1327C71.1856 30.5462 72.5609 23.2155 72.5609 23.2155C72.5609 23.2155 73.1503 30.9233 65.8317 32.2218Z" fill="white"/>
<path d="M92.11 37.9608C92.11 37.9608 88.3279 32.0124 82.4337 32.3476C82.4337 32.3476 82.7776 25.8127 78.6516 25.8127C74.5256 25.8127 74.2801 32.557 71.5786 31.2165C69.27 30.0855 72.3153 28.0748 72.5609 25.1006C72.9047 21.2467 70.105 18.3982 66.1755 18.6915C66.1755 18.6915 65.4879 14.6281 63.6705 13.8322C61.6566 12.9107 60.9198 11.4026 60.9198 11.4026C60.9198 11.4026 60.134 12.9107 58.1201 13.8322C56.3519 14.6281 55.6642 18.6915 55.6642 18.6915C51.7347 18.3982 48.935 21.2467 49.2788 25.1006C49.5244 28.0748 52.5697 30.0855 50.2612 31.2165C47.5105 32.557 47.314 25.8127 43.1881 25.8127C39.0622 25.8127 39.406 32.3476 39.406 32.3476C33.4626 32.0124 29.6805 37.9608 29.6805 37.9608L29.042 37.4162C29.042 37.4162 31.7435 31.8449 37.736 31.049C37.736 31.049 37.0975 22.0845 47.7561 23.802C47.7561 23.802 47.1176 17.6861 54.5344 17.3929C54.5344 17.3929 55.173 13.6647 57.9727 12.5336C60.7725 11.4026 60.9198 9.26624 60.9198 9.26624C60.9198 9.26624 61.0672 11.4026 63.867 12.5336C66.6175 13.6647 67.3052 17.3929 67.3052 17.3929C74.7222 17.6861 74.0345 23.802 74.0345 23.802C84.7423 22.0845 84.0546 31.049 84.0546 31.049C90.0962 31.8449 92.7977 37.4162 92.7977 37.4162L92.11 37.9608Z" fill="white"/>
<path d="M61.4799 25.8474C57.871 36.6774 47.9724 38.9747 47.9724 38.9747L47.8177 38.037C47.8177 38.037 56.8399 35.0834 60.4488 25.7067L61.4799 25.8474Z" fill="white"/>
<path d="M56.008 32.2218L57.0395 31.1327C50.6541 30.5462 49.2788 23.2155 49.2788 23.2155C49.2788 23.2155 48.6403 30.9233 56.008 32.2218Z" fill="white"/>
<path d="M60.576 36.8298C57.1378 35.4474 56.1063 33.8556 56.1063 33.8556L56.9904 32.9759C56.9904 32.9759 58.1201 34.6515 60.576 35.4893C63.081 34.6515 64.6528 32.7665 64.6528 32.7665L65.6843 33.6462C65.6843 33.6462 64.0634 35.4474 60.576 36.8298Z" fill="white"/>
<path d="M61.4799 12.3069C57.8333 2.10975 48.0231 0 48.0231 0L47.8177 0.835109C47.8177 0.835109 56.8059 3.64811 60.4013 12.4387L61.4799 12.3069Z" fill="white"/>
<path d="M56.008 6.16638L57.0886 7.25552C50.6541 7.84198 49.2788 15.1308 49.2788 15.1308C49.2788 15.1308 48.6893 7.42308 56.008 6.16638Z" fill="white"/>
<path d="M29.7296 0.427429C29.7296 0.427429 33.5118 6.3339 39.406 6.04067C39.406 6.04067 39.0622 12.5755 43.1881 12.5755C47.314 12.5755 47.5597 5.83122 50.2612 7.1717C52.5697 8.30272 49.5244 10.3134 49.2788 13.2876C48.935 17.1415 51.7347 19.99 55.6642 19.6968C55.6642 19.6968 56.3519 23.7182 58.1692 24.556C60.183 25.4357 60.9198 26.9437 60.9198 26.9437C60.9198 26.9437 61.7057 25.4357 63.7196 24.556C65.4879 23.7182 66.1755 19.6968 66.1755 19.6968C70.105 19.99 72.9047 17.1415 72.5609 13.2876C72.3153 10.3134 69.27 8.30272 71.5786 7.1717C74.2801 5.83122 74.5256 12.5755 78.6516 12.5755C82.7776 12.5755 82.4337 6.04067 82.4337 6.04067C88.377 6.3339 92.1591 0.427429 92.1591 0.427429L92.7977 0.971998C92.7977 0.971998 90.0962 6.54335 84.1037 7.29737C84.1037 7.29737 84.7423 16.2618 74.0835 14.5862C74.0835 14.5862 74.7222 20.7021 67.3052 20.9954C67.3052 20.9954 66.6667 24.6817 63.867 25.8127C61.0672 26.9437 60.9198 29.0801 60.9198 29.0801C60.9198 29.0801 60.7725 26.9437 57.9727 25.8127C55.2221 24.6817 54.5344 20.9954 54.5344 20.9954C47.1176 20.7021 47.8052 14.5862 47.8052 14.5862C37.0975 16.2618 37.785 7.29737 37.785 7.29737C31.7435 6.54335 29.042 0.971998 29.042 0.971998L29.7296 0.427429Z" fill="white"/>
<path d="M80.6163 0.427429C82.925 0.553099 92.4539 3.61106 92.4539 9.60131C92.4539 15.5497 85.872 17.5604 85.872 17.5604C85.872 17.5604 89.5068 15.5497 89.5068 11.8634C89.5068 10.0202 87.5421 10.0202 87.5421 8.42839C87.5421 6.87847 89.5068 6.7528 90.4891 7.5906C90.4891 7.5906 89.2121 3.0246 80.6163 0.888218V0.427429Z" fill="white"/>
<path d="M60.504 12.3069C63.8552 2.10975 73.0467 0 73.0467 0L73.1904 0.835109C73.1904 0.835109 64.8126 3.64811 61.4615 12.4387L60.504 12.3069Z" fill="white"/>
<path d="M65.8317 6.16638L64.8002 7.25552C71.1856 7.84198 72.5609 15.1308 72.5609 15.1308C72.5609 15.1308 73.1994 7.42308 65.8317 6.16638Z" fill="white"/>
<path d="M61.2636 1.55847C64.7019 2.94084 65.7334 4.53265 65.7334 4.53265L64.8493 5.37045C64.8493 5.37045 63.7196 3.69486 61.2636 2.85706C58.7587 3.69486 57.1868 5.62179 57.1868 5.62179L56.1553 4.7421C56.1553 4.7421 57.7763 2.94084 61.2636 1.55847Z" fill="white"/>
<path d="M89.605 6.6272C89.605 6.6272 89.1629 9.05681 90.2435 10.146C90.2435 10.146 91.275 9.72705 91.6189 10.4811C92.0118 11.2351 91.2259 11.5702 90.7348 11.5284C90.7348 11.5284 90.6856 14.0836 94.6151 15.7173C95.7448 16.1781 96.3342 16.3876 96.1378 17.0578C95.9412 17.6862 94.5659 17.6024 93.3871 16.597C92.2083 15.5498 91.3733 16.974 91.3733 16.974C91.3733 16.974 88.8682 17.2673 86.9035 18.4402C85.6755 19.1942 85.1843 18.524 85.1352 18.147C85.0369 17.7281 85.479 17.5186 85.8229 17.5186C86.1667 17.5186 86.3631 18.0213 86.3631 18.0213C86.3631 18.0213 87.4929 17.1835 88.5244 16.8065C89.5067 16.4295 90.3418 16.3457 90.6856 16.3457C90.6856 16.3457 90.6856 15.2566 92.1591 15.1728C92.1591 15.1728 90.7838 14.1674 90.5874 13.581C90.5874 13.581 89.8014 13.9999 89.5067 13.1202C89.2612 12.408 89.8506 12.2824 89.8506 12.2824C89.8506 12.2824 88.3771 10.146 89.605 6.6272Z" fill="black"/>
<path d="M97.7589 19.0684C98.2009 18.9428 98.7406 18.859 99.0353 17.728C99.3798 16.5132 98.2985 15.7172 95.1063 14.7957C91.0785 13.6646 90.7346 11.5283 90.7346 11.5283C90.7346 11.5283 90.5382 14.4605 95.6465 15.7591C97.8564 16.3456 98.0038 16.8064 98.0038 17.5604C98.0038 18.3144 96.8253 18.9009 95.1063 18.6495V19.4873C96.8253 19.2779 98.0038 19.8225 98.0038 20.5765C98.0038 21.3305 97.8564 21.7913 95.6465 22.3777C90.5382 23.7182 90.7346 26.6086 90.7346 26.6086C90.7346 26.6086 91.0785 24.5141 95.1063 23.3412C98.2985 22.4196 99.3798 21.6237 99.0353 20.4089C98.7406 19.2779 98.2009 19.1941 97.7589 19.0684Z" fill="black"/>
<path d="M89.605 31.5097C89.605 31.5097 89.1629 29.0801 90.2435 27.991C90.2435 27.991 91.275 28.4099 91.6189 27.6559C92.0118 26.9018 91.2259 26.5667 90.7348 26.6086C90.7348 26.6086 90.6856 24.0533 94.6151 22.4196C95.7448 21.9588 96.3342 21.7494 96.1378 21.121C95.9412 20.4927 94.5659 20.5346 93.3871 21.5818C92.2083 22.5872 91.3733 21.1629 91.3733 21.1629C91.3733 21.1629 88.8682 20.9116 86.9035 19.7387C85.6755 18.9847 85.1843 19.613 85.1352 20.0319C85.0369 20.4089 85.479 20.6603 85.8229 20.6603C86.1667 20.6603 86.3631 20.1157 86.3631 20.1157C86.3631 20.1157 87.4929 20.9535 88.5244 21.3305C89.5067 21.7075 90.3418 21.7913 90.6856 21.7913C90.6856 21.7913 90.6856 22.8804 92.1591 22.9642C92.1591 22.9642 90.7838 23.9696 90.5874 24.556C90.5874 24.556 89.8014 24.1371 89.5067 25.0168C89.2612 25.7289 89.8506 25.8965 89.8506 25.8965C89.8506 25.8965 88.3771 27.991 89.605 31.5097Z" fill="black"/>
<path d="M103.849 19.0684C101.885 20.9116 98.8392 21.5399 98.8392 21.5399C99.1339 21.2467 99.1339 20.5346 99.1339 20.5346C99.1339 20.5346 100.853 20.3251 102.572 19.0684C100.853 17.8117 99.1339 17.6023 99.1339 17.6023C99.1339 17.6023 99.1339 16.932 98.8392 16.6388C98.8392 16.6388 101.885 17.2253 103.849 19.0684Z" fill="black"/>
<path d="M94.7625 19.0685C94.7625 20.3252 92.3065 20.9535 92.3065 20.9535C92.3065 20.9535 92.4048 19.9062 93.3871 19.5292C93.3871 19.5292 91.9627 20.0319 90.7838 19.0685C92.0118 18.1888 93.3871 18.6077 93.3871 18.6077C92.4048 18.2725 92.3065 17.1833 92.3065 17.1833C92.3065 17.1833 94.7625 17.728 94.7625 19.0685Z" fill="#009688"/>
<path d="M94.173 18.482C94.173 17.7699 95.0572 17.728 95.0572 18.482V19.99C95.0572 20.744 94.173 20.7021 94.173 19.99V18.482Z" fill="black"/>
<path d="M304.338 25.8474C307.999 36.6774 317.846 38.9747 317.846 38.9747L318 38.037C318 38.037 309.03 35.0834 305.421 25.7067L304.338 25.8474Z" fill="white"/>
<path d="M309.768 32.2218L308.736 31.1327C315.122 30.5462 316.546 23.2155 316.546 23.2155C316.546 23.2155 317.136 30.9233 309.768 32.2218Z" fill="white"/>
<path d="M336.095 37.9608C336.095 37.9608 332.313 32.0124 326.419 32.3476C326.419 32.3476 326.714 25.8127 322.637 25.8127C318.511 25.8127 318.266 32.557 315.564 31.2165C313.256 30.0855 316.3 28.0748 316.546 25.1006C316.89 21.2467 314.09 18.3982 310.111 18.6915C310.111 18.6915 309.473 14.6281 307.656 13.8322C305.642 12.9107 304.856 11.4026 304.856 11.4026C304.856 11.4026 304.12 12.9107 302.105 13.8322C300.337 14.6281 299.649 18.6915 299.649 18.6915C295.72 18.3982 292.92 21.2467 293.264 25.1006C293.51 28.0748 296.506 30.0855 294.197 31.2165C291.496 32.557 291.25 25.8127 287.174 25.8127C283.048 25.8127 283.391 32.3476 283.391 32.3476C277.448 32.0124 273.666 37.9608 273.666 37.9608L273.027 37.4162C273.027 37.4162 275.68 31.8449 281.721 31.049C281.721 31.049 281.083 22.0845 291.742 23.802C291.742 23.802 291.102 17.6861 298.52 17.3929C298.52 17.3929 299.158 13.6647 301.958 12.5336C304.758 11.4026 304.856 9.26624 304.856 9.26624C304.856 9.26624 305.004 11.4026 307.852 12.5336C310.603 13.6647 311.29 17.3929 311.29 17.3929C318.658 17.6861 318.02 23.802 318.02 23.802C328.678 22.0845 328.04 31.049 328.04 31.049C334.082 31.8449 336.783 37.4162 336.783 37.4162L336.095 37.9608Z" fill="white"/>
<path d="M285.159 37.9608C282.9 37.8352 273.322 34.7772 273.322 28.787C273.322 22.7967 279.904 20.8279 279.904 20.8279C279.904 20.8279 276.318 22.7967 276.318 26.5249C276.318 28.3681 278.283 28.3681 278.283 29.918C278.283 31.5098 276.318 31.6355 275.336 30.7977C275.336 30.7977 276.613 35.3218 285.159 37.5V37.9608Z" fill="white"/>
<path d="M305.314 25.8474C301.963 36.6774 292.772 38.9747 292.772 38.9747L292.628 38.037C292.628 38.037 300.958 35.0834 304.357 25.7067L305.314 25.8474Z" fill="white"/>
<path d="M299.994 32.2218L301.025 31.1327C294.639 30.5462 293.264 23.2155 293.264 23.2155C293.264 23.2155 292.626 30.9233 299.994 32.2218Z" fill="white"/>
<path d="M304.562 36.8298C301.123 35.4474 300.091 33.8556 300.091 33.8556L300.927 32.9759C300.927 32.9759 302.105 34.6515 304.562 35.4893C307.067 34.6515 308.589 32.7665 308.589 32.7665L309.621 33.6462C309.621 33.6462 308 35.4474 304.562 36.8298Z" fill="white"/>
<path d="M285.208 0.427429C282.9 0.553099 273.371 3.61106 273.371 9.60131C273.371 15.5497 279.953 17.5604 279.953 17.5604C279.953 17.5604 276.318 15.5497 276.318 11.8634C276.318 10.0202 278.283 10.0202 278.283 8.42839C278.283 6.87847 276.318 6.7528 275.336 7.5906C275.336 7.5906 276.662 3.0246 285.208 0.888218V0.427429Z" fill="white"/>
<path d="M305.314 12.3069C301.963 2.10975 292.82 0 292.82 0L292.628 0.835109C292.628 0.835109 301.006 3.64811 304.357 12.4387L305.314 12.3069Z" fill="white"/>
<path d="M299.994 6.16638L301.025 7.25552C294.639 7.84198 293.264 15.1308 293.264 15.1308C293.264 15.1308 292.626 7.42308 299.994 6.16638Z" fill="white"/>
<path d="M273.666 0.427429C273.666 0.427429 277.497 6.3339 283.391 6.04067C283.391 6.04067 283.048 12.5755 287.174 12.5755C291.25 12.5755 291.544 5.83122 294.247 7.1717C296.555 8.30272 293.51 10.3134 293.264 13.2876C292.92 17.1415 295.72 19.99 299.649 19.6968C299.649 19.6968 300.337 23.7182 302.105 24.556C304.12 25.4357 304.905 26.9437 304.905 26.9437C304.905 26.9437 305.691 25.4357 307.656 24.556C309.473 23.7182 310.161 19.6968 310.161 19.6968C314.09 19.99 316.89 17.1415 316.546 13.2876C316.3 10.3134 313.256 8.30272 315.564 7.1717C318.266 5.83122 318.511 12.5755 322.637 12.5755C326.763 12.5755 326.419 6.04067 326.419 6.04067C332.313 6.3339 336.145 0.427429 336.145 0.427429L336.783 0.971998C336.783 0.971998 334.082 6.54335 328.04 7.29737C328.04 7.29737 328.727 16.2618 318.02 14.5862C318.02 14.5862 318.658 20.7021 311.29 20.9954C311.29 20.9954 310.652 24.6817 307.852 25.8127C305.052 26.9437 304.905 29.0801 304.905 29.0801C304.905 29.0801 304.758 26.9437 301.958 25.8127C299.158 24.6817 298.52 20.9954 298.52 20.9954C291.102 20.7021 291.79 14.5862 291.79 14.5862C281.083 16.2618 281.721 7.29737 281.721 7.29737C275.729 6.54335 273.027 0.971998 273.027 0.971998L273.666 0.427429Z" fill="white"/>
<path d="M304.338 12.3069C307.948 2.10975 317.846 0 317.846 0L318 0.835109C318 0.835109 308.978 3.64811 305.37 12.4387L304.338 12.3069Z" fill="white"/>
<path d="M309.817 6.16638L308.736 7.25552C315.171 7.84198 316.546 15.1308 316.546 15.1308C316.546 15.1308 317.136 7.42308 309.817 6.16638Z" fill="white"/>
<path d="M305.2 1.55847C308.638 2.94084 309.669 4.53265 309.669 4.53265L308.835 5.37045C308.835 5.37045 307.705 3.69486 305.2 2.85706C302.744 3.69486 301.172 5.62179 301.172 5.62179L300.141 4.7421C300.141 4.7421 301.762 2.94084 305.2 1.55847Z" fill="white"/>
<path d="M275.729 31.5097C275.729 31.5097 276.22 29.0801 275.09 27.991C275.09 27.991 274.059 28.4099 273.715 27.6559C273.371 26.9018 274.108 26.5667 274.599 26.6086C274.599 26.6086 274.648 24.0533 270.718 22.4196C269.638 21.9588 269 21.7494 269.196 21.121C269.392 20.4927 270.817 20.5346 271.996 21.5818C273.175 22.5872 273.96 21.1629 273.96 21.1629C273.96 21.1629 276.465 20.9116 278.431 19.7387C279.658 18.9847 280.149 19.613 280.199 20.0319C280.297 20.4089 279.855 20.6603 279.511 20.6603C279.168 20.6603 278.97 20.1157 278.97 20.1157C278.97 20.1157 277.841 20.9535 276.81 21.3724C275.827 21.7075 274.992 21.7913 274.697 21.7913C274.697 21.7913 274.648 22.8804 273.175 22.9642C273.175 22.9642 274.55 23.9696 274.747 24.556C274.747 24.556 275.581 24.1371 275.876 25.0168C276.073 25.7289 275.484 25.8965 275.484 25.8965C275.484 25.8965 276.957 27.991 275.729 31.5097Z" fill="black"/>
<path d="M267.575 19.0684C267.133 19.1941 266.592 19.3198 266.298 20.4089C265.954 21.6237 267.035 22.4196 270.228 23.3412C274.255 24.5141 274.6 26.6086 274.6 26.6086C274.6 26.6086 274.796 23.6763 269.687 22.3777C267.477 21.7913 267.329 21.3305 267.329 20.5765C267.329 19.8225 268.508 19.2779 270.228 19.4873V18.6495C268.508 18.859 267.329 18.3144 267.329 17.5604C267.329 16.8064 267.477 16.3456 269.687 15.7591C274.796 14.4605 274.6 11.5283 274.6 11.5283C274.6 11.5283 274.255 13.6646 270.228 14.7957C267.035 15.7172 265.954 16.5132 266.298 17.728C266.592 18.859 267.133 18.9428 267.575 19.0684Z" fill="black"/>
<path d="M275.729 6.6272C275.729 6.6272 276.22 9.05681 275.09 10.146C275.09 10.146 274.059 9.72705 273.715 10.4811C273.371 11.2351 274.108 11.5702 274.599 11.5284C274.599 11.5284 274.648 14.0836 270.718 15.7173C269.638 16.1781 269 16.3876 269.196 17.0578C269.392 17.6862 270.817 17.6024 271.996 16.597C273.175 15.5498 273.96 16.974 273.96 16.974C273.96 16.974 276.465 17.2673 278.431 18.3983C279.658 19.1942 280.149 18.524 280.199 18.147C280.297 17.7281 279.855 17.5186 279.511 17.5186C279.168 17.5186 278.97 18.0213 278.97 18.0213C278.97 18.0213 277.841 17.1835 276.81 16.8065C275.827 16.4295 274.992 16.3457 274.697 16.3457C274.697 16.3457 274.648 15.2566 273.175 15.1728C273.175 15.1728 274.55 14.1674 274.747 13.581C274.747 13.581 275.581 13.9999 275.876 13.1202C276.073 12.408 275.484 12.2824 275.484 12.2824C275.484 12.2824 276.957 10.146 275.729 6.6272Z" fill="black"/>
<path d="M261.534 19.0684C263.449 17.2253 266.495 16.6388 266.495 16.6388C266.2 16.8901 266.2 17.6023 266.2 17.6023C266.2 17.6023 264.481 17.8117 262.761 19.0684C264.481 20.3251 266.2 20.5346 266.2 20.5346C266.2 20.5346 266.2 21.2467 266.495 21.5399C266.495 21.5399 263.449 20.9116 261.534 19.0684Z" fill="black"/>
<path d="M270.571 19.0685C270.571 17.8118 273.027 17.1833 273.027 17.1833C273.027 17.1833 272.929 18.2725 271.947 18.6077C271.947 18.6077 273.371 18.1469 274.599 19.0685C273.322 19.9481 271.947 19.5292 271.947 19.5292C272.929 19.9062 273.027 20.9535 273.027 20.9535C273.027 20.9535 270.571 20.4089 270.571 19.0685Z" fill="#009688"/>
<path d="M271.21 19.655C271.21 20.409 270.276 20.409 270.276 19.655V18.1889C270.276 17.4349 271.21 17.4767 271.21 18.1889V19.655Z" fill="black"/>
</g>
<defs>
<clipPath id="clip0_33_326">
<rect width="364" height="39" fill="white"/>
</clipPath>
</defs>
</svg>
